{
    "asset" : {
        "generator" : "Khronos glTF Blender I/O v1.6.16",
        "version" : "2.0"
    },
    "scene" : 0,
    "scenes" : [
        {
            "name" : "Scene",
            "nodes" : [
                0,
                1,
                2
            ]
        }
    ],
    "nodes" : [
        {
            "name" : "Light",
            "rotation" : [
                0.16907575726509094,
                0.7558803558349609,
                -0.27217137813568115,
                0.570947527885437
            ],
            "translation" : [
                4.076245307922363,
                5.903861999511719,
                -1.0054539442062378
            ]
        },
        {
            "name" : "Camera",
            "rotation" : [
                0.483536034822464,
                0.33687159419059753,
                -0.20870360732078552,
                0.7804827094078064
            ],
            "translation" : [
                7.358891487121582,
                4.958309173583984,
                6.925790786743164
            ]
        },
        {
            "mesh" : 0,
            "name" : "T111022-1 Black",
            "rotation" : [
                0.7071068286895752,
                0,
                0,
                0.7071067094802856
            ],
            "scale" : [
                0.004999999888241291,
                0.004999999888241291,
                0.004999999888241291
            ]
        }
    ],
    "materials" : [
        {
            "doubleSided" : true,
            "name" : "wire_145028177",
            "pbrMetallicRoughness" : {
                "baseColorFactor" : [
                    0.021375687792897224,
                    0.018947981297969818,
                    0.01919647678732872,
                    1
                ],
                "metallicFactor" : 0,
                "roughnessFactor" : 0.8114382028579712
            }
        },
        {
            "doubleSided" : true,
            "name" : "wire_008110135",
            "pbrMetallicRoughness" : {
                "baseColorFactor" : [
                    0.03589309751987457,
                    0.02872925065457821,
                    0.025845954194664955,
                    1
                ],
                "metallicFactor" : 0,
                "roughnessFactor" : 0.8114382028579712
            }
        },
        {
            "doubleSided" : true,
            "name" : "wire_008008136",
            "pbrMetallicRoughness" : {
                "baseColorFactor" : [
                    0.03589355945587158,
                    0.035367969423532486,
                    0.03381824493408203,
                    1
                ],
                "metallicFactor" : 0,
                "roughnessFactor" : 0.8114382028579712
            }
        },
        {
            "doubleSided" : true,
            "name" : "wire_135006006",
            "pbrMetallicRoughness" : {
                "baseColorFactor" : [
                    0.05194207280874252,
                    0.04716578125953674,
                    0.045132990926504135,
                    1
                ],
                "metallicFactor" : 0,
                "roughnessFactor" : 0.8114382028579712
            }
        },
        {
            "doubleSided" : true,
            "name" : "wire_196088225",
            "pbrMetallicRoughness" : {
                "baseColorFactor" : [
                    0.05880998447537422,
                    0.05157823860645294,
                    0.06128644570708275,
                    1
                ],
                "metallicFactor" : 0,
                "roughnessFactor" : 0.8114382028579712
            }
        },
        {
            "doubleSided" : true,
            "name" : "wire_088177027",
            "pbrMetallicRoughness" : {
                "baseColorFactor" : [
                    0.006776183377951384,
                    0.006819534581154585,
                    0.00659687165170908,
                    1
                ],
                "metallicFactor" : 0,
                "roughnessFactor" : 0.8114382028579712
            }
        },
        {
            "doubleSided" : true,
            "name" : "wire_028089177",
            "pbrMetallicRoughness" : {
                "baseColorFactor" : [
                    0.12217316776514053,
                    0.11570911854505539,
                    0.10668143630027771,
                    1
                ],
                "metallicFactor" : 0,
                "roughnessFactor" : 0.8114382028579712
            }
        }
    ],
    "meshes" : [
        {
            "name" : "T111022-1 Black",
            "primitives" : [
                {
                    "attributes" : {
                        "POSITION" : 0,
                        "NORMAL" : 1,
                        "TEXCOORD_0" : 2
                    },
                    "indices" : 3,
                    "material" : 0
                },
                {
                    "attributes" : {
                        "POSITION" : 4,
                        "NORMAL" : 5,
                        "TEXCOORD_0" : 6
                    },
                    "indices" : 7,
                    "material" : 1
                },
                {
                    "attributes" : {
                        "POSITION" : 8,
                        "NORMAL" : 9,
                        "TEXCOORD_0" : 10
                    },
                    "indices" : 11,
                    "material" : 2
                },
                {
                    "attributes" : {
                        "POSITION" : 12,
                        "NORMAL" : 13,
                        "TEXCOORD_0" : 14
                    },
                    "indices" : 15,
                    "material" : 3
                },
                {
                    "attributes" : {
                        "POSITION" : 16,
                        "NORMAL" : 17,
                        "TEXCOORD_0" : 18
                    },
                    "indices" : 19,
                    "material" : 4
                },
                {
                    "attributes" : {
                        "POSITION" : 20,
                        "NORMAL" : 21,
                        "TEXCOORD_0" : 22
                    },
                    "indices" : 23,
                    "material" : 5
                },
                {
                    "attributes" : {
                        "POSITION" : 24,
                        "NORMAL" : 25,
                        "TEXCOORD_0" : 26
                    },
                    "indices" : 27,
                    "material" : 6
                }
            ]
        }
    ],
    "accessors" : [
        {
            "bufferView" : 0,
            "componentType" : 5126,
            "count" : 573,
            "max" : [
                3.674349069595337,
                -4.985595226287842,
                -0.08014199882745743
            ],
            "min" : [
                2.684580087661743,
                -5.9753642082214355,
                -0.5094069838523865
            ],
            "type" : "VEC3"
        },
        {
            "bufferView" : 1,
            "componentType" : 5126,
            "count" : 573,
            "type" : "VEC3"
        },
        {
            "bufferView" : 2,
            "componentType" : 5126,
            "count" : 573,
            "type" : "VEC2"
        },
        {
            "bufferView" : 3,
            "componentType" : 5123,
            "count" : 864,
            "type" : "SCALAR"
        },
        {
            "bufferView" : 4,
            "componentType" : 5126,
            "count" : 3516,
            "max" : [
                5.1334099769592285,
                4.746664047241211,
                1.2000000424450263e-05
            ],
            "min" : [
                -7.047679901123047,
                -7.4344258308410645,
                -50.000003814697266
            ],
            "type" : "VEC3"
        },
        {
            "bufferView" : 5,
            "componentType" : 5126,
            "count" : 3516,
            "type" : "VEC3"
        },
        {
            "bufferView" : 6,
            "componentType" : 5126,
            "count" : 3516,
            "type" : "VEC2"
        },
        {
            "bufferView" : 7,
            "componentType" : 5123,
            "count" : 5400,
            "type" : "SCALAR"
        },
        {
            "bufferView" : 8,
            "componentType" : 5126,
            "count" : 8133,
            "max" : [
                -3.1396090984344482,
                -23.152572631835938,
                0
            ],
            "min" : [
                -9.230631828308105,
                -26.768524169921875,
                -1.7034469842910767
            ],
            "type" : "VEC3"
        },
        {
            "bufferView" : 9,
            "componentType" : 5126,
            "count" : 8133,
            "type" : "VEC3"
        },
        {
            "bufferView" : 10,
            "componentType" : 5126,
            "count" : 8133,
            "type" : "VEC2"
        },
        {
            "bufferView" : 11,
            "componentType" : 5123,
            "count" : 12156,
            "type" : "SCALAR"
        },
        {
            "bufferView" : 12,
            "componentType" : 5126,
            "count" : 27432,
            "max" : [
                27.288833618164062,
                7.645394802093506,
                0.005545999854803085
            ],
            "min" : [
                -13.530267715454102,
                -43.26744842529297,
                -44.03959655761719
            ],
            "type" : "VEC3"
        },
        {
            "bufferView" : 13,
            "componentType" : 5126,
            "count" : 27432,
            "type" : "VEC3"
        },
        {
            "bufferView" : 14,
            "componentType" : 5126,
            "count" : 27432,
            "type" : "VEC2"
        },
        {
            "bufferView" : 15,
            "componentType" : 5123,
            "count" : 40908,
            "type" : "SCALAR"
        },
        {
            "bufferView" : 16,
            "componentType" : 5126,
            "count" : 3464,
            "max" : [
                22.92545509338379,
                -18.382129669189453,
                0
            ],
            "min" : [
                16.722219467163086,
                -24.15396499633789,
                -1.8740730285644531
            ],
            "type" : "VEC3"
        },
        {
            "bufferView" : 17,
            "componentType" : 5126,
            "count" : 3464,
            "type" : "VEC3"
        },
        {
            "bufferView" : 18,
            "componentType" : 5126,
            "count" : 3464,
            "type" : "VEC2"
        },
        {
            "bufferView" : 19,
            "componentType" : 5123,
            "count" : 5832,
            "type" : "SCALAR"
        },
        {
            "bufferView" : 20,
            "componentType" : 5126,
            "count" : 2372,
            "max" : [
                8.042724609375,
                7.579864978790283,
                -37.77558898925781
            ],
            "min" : [
                -9.880880355834961,
                -10.343740463256836,
                -55.595977783203125
            ],
            "type" : "VEC3"
        },
        {
            "bufferView" : 21,
            "componentType" : 5126,
            "count" : 2372,
            "type" : "VEC3"
        },
        {
            "bufferView" : 22,
            "componentType" : 5126,
            "count" : 2372,
            "type" : "VEC2"
        },
        {
            "bufferView" : 23,
            "componentType" : 5123,
            "count" : 3528,
            "type" : "SCALAR"
        },
        {
            "bufferView" : 24,
            "componentType" : 5126,
            "count" : 1150,
            "max" : [
                1.5555200576782227,
                1.168813943862915,
                -46.22178649902344
            ],
            "min" : [
                -3.4698309898376465,
                -3.856534004211426,
                -47.074378967285156
            ],
            "type" : "VEC3"
        },
        {
            "bufferView" : 25,
            "componentType" : 5126,
            "count" : 1150,
            "type" : "VEC3"
        },
        {
            "bufferView" : 26,
            "componentType" : 5126,
            "count" : 1150,
            "type" : "VEC2"
        },
        {
            "bufferView" : 27,
            "componentType" : 5123,
            "count" : 1728,
            "type" : "SCALAR"
        }
    ],
    "bufferViews" : [
        {
            "buffer" : 0,
            "byteLength" : 6876,
            "byteOffset" : 0
        },
        {
            "buffer" : 0,
            "byteLength" : 6876,
            "byteOffset" : 6876
        },
        {
            "buffer" : 0,
            "byteLength" : 4584,
            "byteOffset" : 13752
        },
        {
            "buffer" : 0,
            "byteLength" : 1728,
            "byteOffset" : 18336
        },
        {
            "buffer" : 0,
            "byteLength" : 42192,
            "byteOffset" : 20064
        },
        {
            "buffer" : 0,
            "byteLength" : 42192,
            "byteOffset" : 62256
        },
        {
            "buffer" : 0,
            "byteLength" : 28128,
            "byteOffset" : 104448
        },
        {
            "buffer" : 0,
            "byteLength" : 10800,
            "byteOffset" : 132576
        },
        {
            "buffer" : 0,
            "byteLength" : 97596,
            "byteOffset" : 143376
        },
        {
            "buffer" : 0,
            "byteLength" : 97596,
            "byteOffset" : 240972
        },
        {
            "buffer" : 0,
            "byteLength" : 65064,
            "byteOffset" : 338568
        },
        {
            "buffer" : 0,
            "byteLength" : 24312,
            "byteOffset" : 403632
        },
        {
            "buffer" : 0,
            "byteLength" : 329184,
            "byteOffset" : 427944
        },
        {
            "buffer" : 0,
            "byteLength" : 329184,
            "byteOffset" : 757128
        },
        {
            "buffer" : 0,
            "byteLength" : 219456,
            "byteOffset" : 1086312
        },
        {
            "buffer" : 0,
            "byteLength" : 81816,
            "byteOffset" : 1305768
        },
        {
            "buffer" : 0,
            "byteLength" : 41568,
            "byteOffset" : 1387584
        },
        {
            "buffer" : 0,
            "byteLength" : 41568,
            "byteOffset" : 1429152
        },
        {
            "buffer" : 0,
            "byteLength" : 27712,
            "byteOffset" : 1470720
        },
        {
            "buffer" : 0,
            "byteLength" : 11664,
            "byteOffset" : 1498432
        },
        {
            "buffer" : 0,
            "byteLength" : 28464,
            "byteOffset" : 1510096
        },
        {
            "buffer" : 0,
            "byteLength" : 28464,
            "byteOffset" : 1538560
        },
        {
            "buffer" : 0,
            "byteLength" : 18976,
            "byteOffset" : 1567024
        },
        {
            "buffer" : 0,
            "byteLength" : 7056,
            "byteOffset" : 1586000
        },
        {
            "buffer" : 0,
            "byteLength" : 13800,
            "byteOffset" : 1593056
        },
        {
            "buffer" : 0,
            "byteLength" : 13800,
            "byteOffset" : 1606856
        },
        {
            "buffer" : 0,
            "byteLength" : 9200,
            "byteOffset" : 1620656
        },
        {
            "buffer" : 0,
            "byteLength" : 3456,
            "byteOffset" : 1629856
        }
    ],
    "buffers" : [
        {
            "byteLength" : 1633312,
            "uri" : "data:application/octet-stream;base64,"
        }
    ]
}
